<svg xmlns="http://www.w3.org/2000/svg" viewBox="0 0 24.18 24.18"><defs><style>.cls-1{fill:#10483e;}.cls-2{fill:none;stroke:#f9f9fa;stroke-miterlimit:10;stroke-width:0.24px;}.cls-3{fill:#cad4db;}.cls-4{fill:#f9c8dd;}</style></defs><title>robertshort</title><g id="Layer_2" data-name="Layer 2"><g id="Layer_1-2" data-name="Layer 1"><rect class="cls-1" width="24.18" height="24.18" rx="12.09"/><circle class="cls-2" cx="12.09" cy="12.09" r="8.32"/><path class="cls-3" d="M11.23,14.31v0H9.93l-.88-1.78H8.39v1.78H7.18v-3.3a9.48,9.48,0,0,0,3.08,1.17l-.08,0Z"/><path class="cls-4" d="M11.06,10.84a1.65,1.65,0,0,1-.21.87,1.17,1.17,0,0,1-.32.35,10,10,0,0,1-1.38-.33l-.24-.09h.25a.7.7,0,0,0,.52-.18.85.85,0,0,0,0-1,.71.71,0,0,0-.52-.18H8.39v1.18a9.7,9.7,0,0,1-1.21-.63V9.32h2a2.26,2.26,0,0,1,1.4.4A1.35,1.35,0,0,1,11.06,10.84Z"/><path class="cls-3" d="M12.76,12.37l-.72,0h-.45v2H12.8V13.18Z"/><path class="cls-3" d="M15.58,11.78l-.87,2.58H13.9l-.69-2c.29,0,.59-.08.89-.15l.2.65.24-.75C14.88,12,15.23,11.9,15.58,11.78Z"/><path class="cls-3" d="M17,11.18v3.18H15.81V13.18l.07-1.51C16.25,11.53,16.63,11.37,17,11.18Z"/><path class="cls-4" d="M17,9.32v1.6a12.07,12.07,0,0,1-1.13.49l0-.64-.24.72q-.54.19-1,.33l.8-2.5Z"/><path class="cls-4" d="M13.14,12.11l-.46-1.34.07,1.37a9.1,9.1,0,0,1-1.16,0V9.32h1.59L14,12C13.72,12,13.42,12.07,13.14,12.11Z"/></g></g></svg>