<svg xmlns="http://www.w3.org/2000/svg" viewBox="0 0 136.59 93.18"><defs><style>.cls-1{opacity:0.24;}.cls-2{fill:#ee9726;}</style></defs><title>dots</title><g id="Layer_2" data-name="Layer 2"><g id="Layer_1-2" data-name="Layer 1"><g class="cls-1"><rect class="cls-2" width="10.75" height="10.75"/><rect class="cls-2" x="13.98" width="10.75" height="10.75"/><rect class="cls-2" x="27.97" width="10.75" height="10.75"/><rect class="cls-2" x="41.95" width="10.75" height="10.75"/><rect class="cls-2" x="55.93" width="10.75" height="10.75"/><rect class="cls-2" x="69.91" width="10.75" height="10.75"/><rect class="cls-2" x="83.9" width="10.75" height="10.75"/><rect class="cls-2" x="97.88" width="10.75" height="10.75"/><rect class="cls-2" x="111.86" width="10.75" height="10.75"/><rect class="cls-2" x="125.85" width="10.75" height="10.75"/><rect class="cls-2" y="16.49" width="10.75" height="10.75"/><rect class="cls-2" x="13.98" y="16.49" width="10.75" height="10.75"/><rect class="cls-2" x="27.97" y="16.49" width="10.75" height="10.75"/><rect class="cls-2" x="41.95" y="16.49" width="10.75" height="10.75"/><rect class="cls-2" x="55.93" y="16.49" width="10.75" height="10.75"/><rect class="cls-2" x="69.91" y="16.49" width="10.75" height="10.75"/><rect class="cls-2" x="83.9" y="16.49" width="10.75" height="10.75"/><rect class="cls-2" x="97.88" y="16.49" width="10.75" height="10.75"/><rect class="cls-2" x="111.86" y="16.49" width="10.75" height="10.75"/><rect class="cls-2" x="125.85" y="16.49" width="10.75" height="10.75"/><rect class="cls-2" y="32.97" width="10.75" height="10.75"/><rect class="cls-2" x="13.98" y="32.97" width="10.75" height="10.75"/><rect class="cls-2" x="27.97" y="32.97" width="10.75" height="10.75"/><rect class="cls-2" x="41.95" y="32.97" width="10.75" height="10.75"/><rect class="cls-2" x="55.93" y="32.97" width="10.75" height="10.75"/><rect class="cls-2" x="69.91" y="32.97" width="10.75" height="10.75"/><rect class="cls-2" x="83.9" y="32.97" width="10.75" height="10.75"/><rect class="cls-2" x="97.88" y="32.97" width="10.75" height="10.75"/><rect class="cls-2" x="111.86" y="32.97" width="10.75" height="10.75"/><rect class="cls-2" x="125.85" y="32.97" width="10.75" height="10.75"/><rect class="cls-2" y="49.46" width="10.75" height="10.75"/><rect class="cls-2" x="13.98" y="49.46" width="10.75" height="10.75"/><rect class="cls-2" x="27.97" y="49.46" width="10.75" height="10.75"/><rect class="cls-2" x="41.95" y="49.46" width="10.75" height="10.75"/><rect class="cls-2" x="55.93" y="49.46" width="10.75" height="10.75"/><rect class="cls-2" x="69.91" y="49.46" width="10.75" height="10.75"/><rect class="cls-2" x="83.9" y="49.46" width="10.75" height="10.75"/><rect class="cls-2" x="97.88" y="49.46" width="10.75" height="10.75"/><rect class="cls-2" x="111.86" y="49.46" width="10.75" height="10.75"/><rect class="cls-2" x="125.85" y="49.46" width="10.75" height="10.75"/><rect class="cls-2" y="65.95" width="10.75" height="10.75"/><rect class="cls-2" x="13.98" y="65.95" width="10.75" height="10.75"/><rect class="cls-2" x="27.97" y="65.95" width="10.75" height="10.75"/><rect class="cls-2" x="41.95" y="65.95" width="10.75" height="10.75"/><rect class="cls-2" x="55.93" y="65.95" width="10.75" height="10.75"/><rect class="cls-2" x="69.91" y="65.95" width="10.75" height="10.75"/><rect class="cls-2" x="83.9" y="65.95" width="10.75" height="10.75"/><rect class="cls-2" x="97.88" y="65.95" width="10.75" height="10.75"/><rect class="cls-2" x="111.86" y="65.95" width="10.75" height="10.75"/><rect class="cls-2" x="125.85" y="65.95" width="10.75" height="10.75"/><rect class="cls-2" y="82.44" width="10.75" height="10.75"/><rect class="cls-2" x="13.98" y="82.44" width="10.75" height="10.75"/><rect class="cls-2" x="27.97" y="82.44" width="10.75" height="10.75"/><rect class="cls-2" x="41.95" y="82.44" width="10.75" height="10.75"/><rect class="cls-2" x="55.93" y="82.44" width="10.75" height="10.75"/><rect class="cls-2" x="69.91" y="82.44" width="10.75" height="10.75"/><rect class="cls-2" x="83.9" y="82.44" width="10.75" height="10.75"/><rect class="cls-2" x="97.88" y="82.44" width="10.75" height="10.75"/><rect class="cls-2" x="111.86" y="82.44" width="10.75" height="10.75"/><rect class="cls-2" x="125.85" y="82.44" width="10.75" height="10.75"/></g></g></g></svg>