<svg xmlns="http://www.w3.org/2000/svg" xmlns:xlink="http://www.w3.org/1999/xlink" viewBox="0 0 24 21.66"><defs><style>.cls-1{fill:url(#linear-gradient);}.cls-2{fill:url(#linear-gradient-2);}.cls-3{fill:url(#linear-gradient-3);}.cls-4{fill:url(#linear-gradient-4);}.cls-5{fill:url(#linear-gradient-7);}.cls-6{fill:url(#linear-gradient-8);}.cls-7{fill:url(#linear-gradient-9);}</style><linearGradient id="linear-gradient" x1="3.4" y1="19.33" x2="3.65" y2="19.33" gradientUnits="userSpaceOnUse"><stop offset="0" stop-color="#893e97"/><stop offset="1" stop-color="#e76128"/></linearGradient><linearGradient id="linear-gradient-2" x1="21.4" y1="11.01" x2="24" y2="11.01" xlink:href="#linear-gradient"/><linearGradient id="linear-gradient-3" x1="16.68" y1="11.01" x2="21.89" y2="11.01" xlink:href="#linear-gradient"/><linearGradient id="linear-gradient-4" x1="12.23" y1="11.01" x2="19.95" y2="11.01" xlink:href="#linear-gradient"/><linearGradient id="linear-gradient-7" x1="3.46" y1="10.6" x2="11.73" y2="10.6" xlink:href="#linear-gradient"/><linearGradient id="linear-gradient-8" x1="1.74" y1="10.56" x2="7.28" y2="10.56" xlink:href="#linear-gradient"/><linearGradient id="linear-gradient-9" x1="0" y1="10.6" x2="2.56" y2="10.6" xlink:href="#linear-gradient"/></defs><title>hedge</title><g id="Layer_2" data-name="Layer 2"><g id="Layer_1-2" data-name="Layer 1"><path class="cls-1" d="M3.65,19.23l-.18.19h0l-.06-.06Z"/><path class="cls-2" d="M24,11a11.89,11.89,0,0,1-1.37,5.57,13.25,13.25,0,0,1,0-11.15A11.93,11.93,0,0,1,24,11Z"/><path class="cls-3" d="M21.89,17.8a11.39,11.39,0,0,1-1.83,2.09,13.37,13.37,0,0,1,0-17.77,11.79,11.79,0,0,1,1.83,2.1,10.6,10.6,0,0,0,0,13.58Z"/><path class="cls-4" d="M20,20a11.58,11.58,0,0,1-2.42,1.67h0a13.35,13.35,0,0,1,0-21.3h0A11.54,11.54,0,0,1,20,2a10.61,10.61,0,0,0,0,18Z"/><path class="cls-1" d="M3.4,19.37l.06.06h0l.18-.19Z"/><path class="cls-1" d="M3.4,19.37l.06.06h0l.18-.19Z"/><path class="cls-5" d="M11.73,9.87A13.33,13.33,0,0,1,5.68,21.2a11.15,11.15,0,0,1-2.22-1.77h0l.18-.19A10.64,10.64,0,0,0,9,9.9,10.55,10.55,0,0,0,5.79,2.43a10.73,10.73,0,0,0-1.1-.94A12.28,12.28,0,0,1,7.22,0c.17.15.33.3.48.46A13.25,13.25,0,0,1,11.73,9.87Z"/><path class="cls-6" d="M7.28,9.92a13.29,13.29,0,0,1-3.63,9.31l-.25.14a11.93,11.93,0,0,1-1.66-2.13A10.56,10.56,0,0,0,4.53,10a10.53,10.53,0,0,0-2.08-6.2,12.59,12.59,0,0,1,1.92-2A13.22,13.22,0,0,1,7.28,9.92Z"/><path class="cls-7" d="M2.56,10a13.33,13.33,0,0,1-1.42,6.15,12,12,0,0,1,.43-11A13.25,13.25,0,0,1,2.56,10Z"/></g></g></svg>