<svg xmlns="http://www.w3.org/2000/svg" viewBox="0 0 41.48 24.03"><defs><style>.cls-1{fill:#f26323;}.cls-2{fill:#ef4b23;}.cls-3{fill:#fcb54e;}.cls-4{fill:#ee9726;}.cls-5{fill:none;}</style></defs><title>martins</title><g id="Layer_2" data-name="Layer 2"><g id="Layer_1-2" data-name="Layer 1"><path class="cls-1" d="M4.58,10.42A28.35,28.35,0,0,1,0,8.4V20H4.82V15.3ZM16.9,11.94l-.17,3.36V20h4.83V11.38A40.38,40.38,0,0,1,16.9,11.94Zm-6.12,2-.7-2.19a30.41,30.41,0,0,1-4-.81L9.19,20h3.18l2.71-8a33.17,33.17,0,0,1-3.65-.14Z"/><path class="cls-2" d="M21.56,0V11.38a40.38,40.38,0,0,1-4.66.56l.3-6.18L15.08,12a33.17,33.17,0,0,1-3.65-.14L15.22,0Z"/><path class="cls-3" d="M35.9,16.74a3.8,3.8,0,0,1-.55,2.3,2.17,2.17,0,0,1-1.83.71,2.08,2.08,0,0,1-1.78-.86,4.07,4.07,0,0,1-.63-2.42V8.73a56.8,56.8,0,0,1-5.55,1.77v6a7.49,7.49,0,0,0,1,3.93,7,7,0,0,0,2.85,2.68,8.76,8.76,0,0,0,4.08,1,8.41,8.41,0,0,0,5.87-1.9,6.94,6.94,0,0,0,2.09-5.39Z"/><path class="cls-4" d="M31.11.63v8.1a56.8,56.8,0,0,1-5.55,1.77V.63Z"/><path class="cls-2" d="M6.1,10.89,4.35,5.74l.23,4.68A28.35,28.35,0,0,1,0,8.4V0H6.33l3.75,11.7A30.41,30.41,0,0,1,6.1,10.89Z"/><path class="cls-5" d="M16.9,11.94c-.62,0-1.23.06-1.82.06"/></g></g></svg>