<svg xmlns="http://www.w3.org/2000/svg" viewBox="0 0 20.07 20.07"><defs><style>.cls-1{fill:#f9f9fa;}.cls-2{fill:#f26323;}.cls-3{fill:#ef4b23;}.cls-4{fill:#fcb54e;}.cls-5{fill:#ee9726;}.cls-6{fill:none;}</style></defs><title>martinsshort</title><g id="Layer_2" data-name="Layer 2"><g id="Layer_1-2" data-name="Layer 1"><rect class="cls-1" width="20.07" height="20.07" rx="10.04"/><path class="cls-2" d="M4.42,9.17A11.87,11.87,0,0,1,2.7,8.41v4.34H4.51V11Zm4.63.57L9,11v1.75H10.8V9.53A16.61,16.61,0,0,1,9.05,9.74Zm-2.3.73-.26-.82A11,11,0,0,1,5,9.34l1.16,3.41h1.2l1-3A12.37,12.37,0,0,1,7,9.71Z"/><path class="cls-3" d="M10.8,5.25V9.53a16.61,16.61,0,0,1-1.75.21l.11-2.32L8.37,9.76A12.37,12.37,0,0,1,7,9.71L8.42,5.25Z"/><path class="cls-4" d="M16.18,11.54a1.4,1.4,0,0,1-.2.86.82.82,0,0,1-.69.27.79.79,0,0,1-.67-.32,1.51,1.51,0,0,1-.23-.91V8.53C13.66,8.8,13,9,12.3,9.2v2.24a2.85,2.85,0,0,0,.39,1.48,2.59,2.59,0,0,0,1.07,1,3.26,3.26,0,0,0,1.53.36,3.12,3.12,0,0,0,2.2-.72,2.56,2.56,0,0,0,.79-2Z"/><path class="cls-5" d="M14.39,5.49v3C13.66,8.8,13,9,12.3,9.2V5.49Z"/><path class="cls-3" d="M5,9.34,4.34,7.41l.08,1.76A11.87,11.87,0,0,1,2.7,8.41V5.25H5.08l1.41,4.4A11,11,0,0,1,5,9.34Z"/><path class="cls-6" d="M9.05,9.74l-.68,0"/></g></g></svg>