<svg xmlns="http://www.w3.org/2000/svg" viewBox="0 0 25.76 29.56"><defs><style>.cls-1{fill:#263d90;}.cls-2{fill:#0774ba;}</style></defs><title>realestate</title><g id="Layer_2" data-name="Layer 2"><g id="Layer_1-2" data-name="Layer 1"><path class="cls-1" d="M12.88,0h0V3.9h0L22.4,9.4v11L21,21.23l-2.9,1.67-.95.55-3.83,2.21-.07,0h.07v3.85l12.48-7.22V7.46Z"/><polygon class="cls-2" points="3.36 9.38 3.36 20.37 4.81 21.21 7.71 22.88 8.72 23.47 12.56 25.68 12.56 29.56 0 22.31 0 7.43 12.88 0 12.88 3.88 3.36 9.38"/><polygon class="cls-2" points="12.56 8.38 12.56 25.68 8.72 23.47 8.72 12.88 12.56 8.38"/><polygon class="cls-1" points="17.11 12.88 17.11 23.42 13.28 25.64 13.28 8.38 17.11 12.88"/><polygon class="cls-1" points="20.96 16.25 20.96 21.21 18.06 22.88 18.06 12.88 20.96 16.25"/><polygon class="cls-2" points="7.71 12.88 7.71 22.88 4.81 21.21 4.81 16.25 7.71 12.88"/></g></g></svg>