<svg xmlns="http://www.w3.org/2000/svg" viewBox="0 0 54.98 54.98"><defs><style>.cls-1{fill:none;stroke:#f9f9fa;stroke-miterlimit:10;stroke-width:0.77px;}.cls-2{fill:#cad4db;}.cls-3{fill:#f9c8dd;}</style></defs><title>robert</title><g id="Layer_2" data-name="Layer 2"><g id="Layer_1-2" data-name="Layer 1"><circle class="cls-1" cx="27.49" cy="27.49" r="27.11"/><path class="cls-2" d="M24.7,34.71v.17H20.47l-2.89-5.81H15.44v5.81h-4V24.15A31.59,31.59,0,0,0,21.54,28a2.1,2.1,0,0,1-.26.13Z"/><path class="cls-3" d="M24.14,23.43a5.32,5.32,0,0,1-.69,2.83,4.22,4.22,0,0,1-1,1.13,28.26,28.26,0,0,1-4.5-1.09L17.14,26h.8a2.23,2.23,0,0,0,1.69-.6,2.31,2.31,0,0,0,.57-1.66,2.32,2.32,0,0,0-.57-1.66,2.22,2.22,0,0,0-1.69-.61h-2.5v3.85a29.24,29.24,0,0,1-4-2.05V18.48h6.46a7.23,7.23,0,0,1,4.56,1.29A4.37,4.37,0,0,1,24.14,23.43Z"/><path class="cls-2" d="M29.68,28.4c-.81.06-1.59.1-2.36.1-.49,0-1,0-1.46,0v6.42h3.95V31Z"/><path class="cls-2" d="M38.87,26.47,36,34.88H33.4l-2.25-6.61c.94-.11,1.9-.27,2.89-.47l.67,2.09.77-2.42C36.59,27.2,37.72,26.87,38.87,26.47Z"/><path class="cls-2" d="M43.55,24.52V34.88H39.6V31l.23-4.93A38.81,38.81,0,0,0,43.55,24.52Z"/><path class="cls-3" d="M43.55,18.48v5.19c-1.25.61-2.48,1.14-3.67,1.6l.1-2.06-.79,2.32a34.64,34.64,0,0,1-3.44,1.08l2.61-8.13Z"/><path class="cls-3" d="M30.9,27.54l-1.48-4.35.22,4.48a30.15,30.15,0,0,1-3.78.06V18.48h5.19l2.75,8.59C32.81,27.28,31.84,27.43,30.9,27.54Z"/></g></g></svg>