<svg xmlns="http://www.w3.org/2000/svg" viewBox="0 0 29.33 29.33"><defs><style>.cls-1{fill:#383637;}.cls-2{fill:none;stroke:#f9f9fa;stroke-miterlimit:10;stroke-width:0.26px;}.cls-3{fill:#cad4db;}.cls-4{fill:#f9c8dd;}</style></defs><title>robertshort</title><g id="Layer_2" data-name="Layer 2"><g id="Layer_1-2" data-name="Layer 1"><rect class="cls-1" width="29.33" height="29.33" rx="14.66"/><circle class="cls-2" cx="14.66" cy="14.66" r="9"/><path class="cls-3" d="M13.74,17.06v.06H12.33l-1-1.93h-.71v1.93H9.35V13.56a10.74,10.74,0,0,0,3.34,1.26l-.09,0Z"/><path class="cls-4" d="M13.55,13.32a1.73,1.73,0,0,1-.23.94,1.32,1.32,0,0,1-.34.37,9.57,9.57,0,0,1-1.49-.36l-.26-.09h.26a.68.68,0,0,0,.75-.75.75.75,0,0,0-.19-.55.73.73,0,0,0-.56-.2h-.83V14a12.26,12.26,0,0,1-1.31-.68V11.67h2.14A2.39,2.39,0,0,1,13,12.1,1.47,1.47,0,0,1,13.55,13.32Z"/><path class="cls-3" d="M15.39,15l-.78,0h-.49v2.13h1.31V15.84Z"/><path class="cls-3" d="M18.44,14.32l-1,2.8h-.86l-.75-2.2c.31,0,.63-.09,1-.15l.22.69.26-.8A10.17,10.17,0,0,0,18.44,14.32Z"/><path class="cls-3" d="M20,13.68v3.44H18.68V15.84l.08-1.63C19.17,14.06,19.58,13.88,20,13.68Z"/><path class="cls-4" d="M20,11.67v1.72c-.42.21-.83.39-1.22.54l0-.69-.26.77a9.31,9.31,0,0,1-1.14.36l.86-2.7Z"/><path class="cls-4" d="M15.8,14.68l-.49-1.44.07,1.48a10.8,10.8,0,0,1-1.26,0V11.67h1.72l.92,2.85A8.73,8.73,0,0,1,15.8,14.68Z"/></g></g></svg>