<svg xmlns="http://www.w3.org/2000/svg" xmlns:xlink="http://www.w3.org/1999/xlink" viewBox="0 0 30.93 29.48"><defs><style>.cls-1{fill:url(#linear-gradient);}.cls-2{fill:#231f20;}</style><linearGradient id="linear-gradient" y1="17.71" x2="30.93" y2="17.71" gradientUnits="userSpaceOnUse"><stop offset="0" stop-color="#893e97"/><stop offset="1" stop-color="#e76128"/></linearGradient></defs><title>stock</title><g id="Layer_2" data-name="Layer 2"><g id="Layer_1-2" data-name="Layer 1"><polygon class="cls-1" points="30.93 14.01 15.47 29.48 0 14.01 7.95 6.06 9.21 8.56 3.76 14.01 15.47 25.72 27.17 14.01 21.6 8.44 22.87 5.95 30.93 14.01"/><polygon class="cls-2" points="21.54 6.08 20.44 8.24 15.46 3.26 10.39 8.34 9.29 6.17 15.46 0 21.54 6.08"/><polygon class="cls-2" points="12.42 8.51 12.42 21.11 9.82 18.51 9.82 10.69 12.42 8.51"/><polygon class="cls-2" points="16.63 8.51 16.63 22.77 15.36 24.05 14.03 22.72 14.03 10.69 16.63 8.51"/><polygon class="cls-2" points="20.84 8.51 20.84 18.56 18.25 21.16 18.25 10.69 20.66 8.66 20.84 8.51"/></g></g></svg>